# Blender v3.0.0 OBJ File: 'dough.blend'
# www.blender.org
mtllib dough.mtl
v 0.923430 1.818630 -2.229330
v 0.000000 2.367510 -1.612320
v 0.617010 2.367510 -1.489590
v 0.923430 0.137160 -2.229330
v 2.012670 0.512610 -2.012670
v 1.706250 0.137160 -1.706250
v 1.089240 1.127970 -2.629680
v 0.000000 1.818630 -2.413020
v 1.140090 0.016320 -1.140090
v 0.000000 0.512610 -2.846340
v 1.089240 0.512610 -2.629680
v -0.923430 1.818630 -2.229330
v -0.617010 2.367510 -1.489590
v 0.216660 2.646540 -0.523080
v 1.140090 2.367510 -1.140090
v 1.706250 1.818630 -1.706250
v 2.012670 1.127970 -2.012670
v 0.617010 0.016320 -1.489590
v 0.000000 0.137160 -2.413020
v 2.629680 1.127970 -1.089240
v 2.629680 0.512610 -1.089240
v 0.000000 2.678820 0.000000
v 0.400350 2.646540 -0.400350
v 0.216660 0.031620 -0.523080
v 0.400350 0.031620 -0.400350
v 0.000000 1.127970 -2.846340
v -1.089240 0.512610 -2.629680
v -1.089240 1.127970 -2.629680
v 0.523080 2.646540 -0.216660
v 1.489590 2.367510 -0.617010
v 2.229330 1.818630 -0.923430
v 2.846340 1.127970 0.000000
v 2.846340 0.512610 0.000000
v 2.229330 0.137160 -0.923430
v 1.489590 0.016320 -0.617010
v 1.612320 2.367510 0.000000
v 0.566160 2.646540 0.000000
v 0.000000 0.041370 0.000000
v 0.523080 0.031620 -0.216660
v 2.413020 1.818630 0.000000
v 2.413020 0.137160 0.000000
v 2.629680 1.127970 1.089240
v 2.629680 0.512610 1.089240
v 1.612320 0.016320 0.000000
v 1.489590 2.367510 0.617010
v 0.523080 2.646540 0.216660
v 0.566160 0.031620 0.000000
v 2.229330 1.818630 0.923430
v 2.229330 0.137160 0.923430
v 2.012670 1.127970 2.012670
v 2.012670 0.512610 2.012670
v 1.489590 0.016320 0.617010
v 0.400350 2.646540 0.400350
v 1.140090 2.367510 1.140090
v 0.523080 0.031620 0.216660
v 1.706250 1.818630 1.706250
v 1.089240 1.127970 2.629680
v 1.089240 0.512610 2.629680
v 1.706250 0.137160 1.706250
v 0.923430 1.818630 2.229330
v 0.617010 2.367510 1.489590
v 0.216660 2.646540 0.523080
v 1.140090 0.016320 1.140090
v 0.400350 0.031620 0.400350
v 0.000000 1.127970 2.846340
v 0.000000 0.512609 2.846340
v 0.923430 0.137160 2.229330
v 0.617010 0.016320 1.489590
v 0.000000 2.367510 1.612320
v 0.000000 1.818630 2.413020
v 0.216660 0.031620 0.523080
v 0.000000 2.646540 0.566160
v -1.089240 0.512610 2.629680
v -1.089240 1.127970 2.629680
v 0.000000 0.137160 2.413020
v 0.000000 0.016320 1.612320
v -0.617010 2.367510 1.489590
v -0.216660 2.646540 0.523080
v 0.000000 0.031620 0.566160
v -0.923430 1.818630 2.229330
v -2.012670 0.512610 2.012670
v -2.012670 1.127970 2.012670
v -0.617010 0.016320 1.489590
v -0.923430 0.137160 2.229330
v -0.400350 2.646540 0.400350
v -1.140090 2.367510 1.140090
v -1.706250 1.818630 1.706250
v -0.216660 0.031620 0.523080
v -1.706250 0.137160 1.706250
v -1.140090 0.016320 1.140090
v -2.629680 0.512610 1.089240
v -2.629680 1.127970 1.089240
v -1.489590 2.367510 0.617010
v -0.523080 2.646540 0.216660
v -0.400350 0.031620 0.400350
v -2.229330 1.818630 0.923430
v -1.489590 0.016320 0.617010
v -2.229330 0.137160 0.923430
v -2.846340 1.127970 0.000000
v -2.846340 0.512610 0.000000
v -0.523080 0.031620 0.216660
v -2.413020 1.818630 0.000000
v -1.612320 2.367510 0.000000
v -0.566160 2.646540 0.000000
v -2.413020 0.137160 0.000000
v -1.612320 0.016320 0.000000
v -2.629680 1.127970 -1.089240
v -2.629680 0.512610 -1.089240
v -0.566160 0.031620 0.000000
v -2.229330 1.818630 -0.923430
v -0.523080 2.646540 -0.216660
v -1.489590 2.367510 -0.617010
v -2.229330 0.137160 -0.923430
v -2.012670 0.512610 -2.012670
v -2.012670 1.127970 -2.012670
v -1.489590 0.016320 -0.617010
v -1.706250 1.818630 -1.706250
v -1.140090 2.367510 -1.140090
v -0.400350 2.646540 -0.400350
v -0.523080 0.031620 -0.216660
v -1.706250 0.137160 -1.706250
v -1.140090 0.016320 -1.140090
v -0.216660 2.646540 -0.523080
v -0.400350 0.031620 -0.400350
v -0.216660 0.031620 -0.523080
v 0.000000 0.031620 -0.566160
v -0.923430 0.137160 -2.229330
v -0.617010 0.016320 -1.489590
v 0.000000 0.016320 -1.612320
v 0.000000 2.646540 -0.566160
vt 0.771039 0.801453
vt 0.772719 0.804813
vt 0.771039 0.804813
vt 0.771039 0.791371
vt 0.769359 0.794731
vt 0.769359 0.791371
vt 0.771039 0.798092
vt 0.772719 0.801453
vt 0.769359 0.788011
vt 0.772719 0.794731
vt 0.771039 0.794731
vt 0.774400 0.801453
vt 0.774400 0.804813
vt 0.771039 0.808174
vt 0.769359 0.804813
vt 0.769359 0.801453
vt 0.769359 0.798092
vt 0.771039 0.788011
vt 0.772719 0.791371
vt 0.767679 0.798092
vt 0.767679 0.794731
vt 0.769779 0.809854
vt 0.769359 0.808174
vt 0.771039 0.784649
vt 0.769359 0.784649
vt 0.772719 0.798092
vt 0.774400 0.794731
vt 0.774400 0.798092
vt 0.767679 0.808174
vt 0.767679 0.804813
vt 0.767679 0.801453
vt 0.765998 0.798092
vt 0.765998 0.794731
vt 0.767679 0.791371
vt 0.767679 0.788011
vt 0.768100 0.809854
vt 0.765998 0.804813
vt 0.765998 0.808174
vt 0.770619 0.782970
vt 0.767679 0.784649
vt 0.765998 0.801453
vt 0.765998 0.791371
vt 0.764319 0.798092
vt 0.764319 0.794731
vt 0.765998 0.788011
vt 0.764319 0.804813
vt 0.764319 0.808174
vt 0.768940 0.782970
vt 0.765998 0.784649
vt 0.764319 0.801453
vt 0.766419 0.809854
vt 0.764319 0.791371
vt 0.762638 0.798092
vt 0.762638 0.794731
vt 0.764319 0.788011
vt 0.767258 0.782970
vt 0.762638 0.808174
vt 0.762638 0.804813
vt 0.764319 0.784649
vt 0.762638 0.801453
vt 0.764738 0.809854
vt 0.760957 0.798092
vt 0.760957 0.794731
vt 0.762638 0.791371
vt 0.765579 0.782970
vt 0.760957 0.801453
vt 0.760957 0.804813
vt 0.760957 0.808174
vt 0.762638 0.788011
vt 0.762638 0.784649
vt 0.763059 0.809854
vt 0.759278 0.798092
vt 0.759278 0.794731
vt 0.760957 0.791371
vt 0.760957 0.788011
vt 0.759278 0.804813
vt 0.759278 0.801453
vt 0.760957 0.784649
vt 0.759278 0.808174
vt 0.761378 0.809854
vt 0.763898 0.782970
vt 0.757597 0.794731
vt 0.757597 0.798092
vt 0.759278 0.791371
vt 0.759278 0.788011
vt 0.757597 0.804813
vt 0.757597 0.808174
vt 0.759278 0.784649
vt 0.757597 0.801453
vt 0.759698 0.809854
vt 0.762219 0.782970
vt 0.755916 0.794731
vt 0.755916 0.798092
vt 0.757597 0.788011
vt 0.757597 0.791371
vt 0.755916 0.808174
vt 0.755916 0.804813
vt 0.755916 0.801453
vt 0.758018 0.809854
vt 0.757597 0.784649
vt 0.760538 0.782970
vt 0.755916 0.791371
vt 0.755916 0.788011
vt 0.754237 0.794731
vt 0.754237 0.798092
vt 0.754237 0.804813
vt 0.754237 0.808174
vt 0.756337 0.809854
vt 0.755916 0.784649
vt 0.754237 0.801453
vt 0.758857 0.782970
vt 0.754237 0.788011
vt 0.754237 0.791371
vt 0.779441 0.798092
vt 0.752556 0.794731
vt 0.754237 0.784649
vt 0.754657 0.809854
vt 0.779441 0.801453
vt 0.752556 0.798092
vt 0.757178 0.782970
vt 0.752556 0.804813
vt 0.779441 0.808174
vt 0.779441 0.791371
vt 0.752556 0.788011
vt 0.779441 0.794731
vt 0.752556 0.791371
vt 0.779441 0.804813
vt 0.752556 0.801453
vt 0.777760 0.798092
vt 0.777760 0.794731
vt 0.752556 0.784649
vt 0.779441 0.788011
vt 0.777760 0.801453
vt 0.755497 0.782970
vt 0.752977 0.809854
vt 0.752556 0.808174
vt 0.777760 0.808174
vt 0.777760 0.804813
vt 0.777760 0.791371
vt 0.776081 0.794731
vt 0.776081 0.798092
vt 0.777760 0.788011
vt 0.776081 0.801453
vt 0.753816 0.782970
vt 0.778181 0.809854
vt 0.776081 0.804813
vt 0.776081 0.808174
vt 0.777760 0.784649
vt 0.776081 0.791371
vt 0.776081 0.788011
vt 0.776500 0.809854
vt 0.779022 0.782970
vt 0.779441 0.784649
vt 0.774400 0.808174
vt 0.776081 0.784649
vt 0.773981 0.782970
vt 0.774400 0.784649
vt 0.772719 0.784649
vt 0.774400 0.791371
vt 0.774400 0.788011
vt 0.774820 0.809854
vt 0.777341 0.782970
vt 0.772719 0.788011
vt 0.775660 0.782970
vt 0.773140 0.809854
vt 0.772719 0.808174
vt 0.772299 0.782970
vt 0.771460 0.809854
vn 0.2805 0.6802 -0.6772
vn -0.0000 0.9006 -0.4347
vn 0.1664 0.9006 -0.4016
vn 0.1708 -0.8948 -0.4124
vn 0.6490 -0.3971 -0.6490
vn 0.3157 -0.8948 -0.3157
vn 0.3687 0.2678 -0.8901
vn -0.0000 0.6802 -0.7330
vn 0.0550 -0.9970 -0.0550
vn -0.0000 -0.3971 -0.9178
vn 0.3512 -0.3971 -0.8479
vn -0.2805 0.6802 -0.6772
vn -0.1664 0.9006 -0.4016
vn 0.0652 0.9854 -0.1575
vn 0.3074 0.9006 -0.3074
vn 0.5183 0.6802 -0.5183
vn 0.6813 0.2678 -0.6813
vn 0.0297 -0.9970 -0.0718
vn -0.0000 -0.8948 -0.4464
vn 0.8901 0.2678 -0.3687
vn 0.8479 -0.3971 -0.3512
vn -0.0000 1.0000 0.0000
vn 0.1205 0.9854 -0.1205
vn -0.0060 -0.9999 0.0146
vn -0.0111 -0.9999 0.0111
vn -0.0000 0.2678 -0.9635
vn -0.3512 -0.3971 -0.8479
vn -0.3687 0.2678 -0.8901
vn 0.1575 0.9854 -0.0652
vn 0.4016 0.9006 -0.1664
vn 0.6772 0.6802 -0.2805
vn 0.9635 0.2678 0.0000
vn 0.9178 -0.3971 -0.0000
vn 0.4124 -0.8948 -0.1708
vn 0.0718 -0.9970 -0.0297
vn 0.4347 0.9006 -0.0000
vn 0.1705 0.9854 0.0000
vn 0.0000 -1.0000 -0.0000
vn -0.0146 -0.9999 0.0060
vn 0.7330 0.6802 0.0000
vn 0.4464 -0.8948 -0.0000
vn 0.8901 0.2678 0.3687
vn 0.8479 -0.3971 0.3512
vn 0.0777 -0.9970 0.0000
vn 0.4016 0.9006 0.1664
vn 0.1575 0.9854 0.0652
vn -0.0158 -0.9999 -0.0000
vn 0.6772 0.6802 0.2805
vn 0.4124 -0.8948 0.1708
vn 0.6813 0.2678 0.6813
vn 0.6490 -0.3971 0.6490
vn 0.0718 -0.9970 0.0297
vn 0.1205 0.9854 0.1205
vn 0.3074 0.9006 0.3074
vn -0.0146 -0.9999 -0.0060
vn 0.5183 0.6802 0.5183
vn 0.3687 0.2678 0.8901
vn 0.3512 -0.3971 0.8479
vn 0.3157 -0.8948 0.3157
vn 0.2805 0.6802 0.6772
vn 0.1664 0.9006 0.4016
vn 0.0652 0.9854 0.1575
vn 0.0550 -0.9970 0.0550
vn -0.0111 -0.9999 -0.0111
vn 0.0000 0.2678 0.9635
vn 0.0000 -0.3971 0.9178
vn 0.1708 -0.8948 0.4124
vn 0.0297 -0.9970 0.0718
vn 0.0000 0.9006 0.4347
vn 0.0000 0.6802 0.7330
vn -0.0060 -0.9999 -0.0146
vn 0.0000 0.9854 0.1705
vn -0.3512 -0.3971 0.8479
vn -0.3687 0.2678 0.8901
vn 0.0000 -0.8948 0.4464
vn 0.0000 -0.9970 0.0777
vn -0.1664 0.9006 0.4016
vn -0.0652 0.9854 0.1575
vn 0.0000 -0.9999 -0.0158
vn -0.2805 0.6802 0.6772
vn -0.6490 -0.3971 0.6490
vn -0.6813 0.2678 0.6813
vn -0.0297 -0.9970 0.0718
vn -0.1708 -0.8948 0.4124
vn -0.1205 0.9854 0.1205
vn -0.3074 0.9006 0.3074
vn -0.5183 0.6802 0.5183
vn 0.0060 -0.9999 -0.0146
vn -0.3157 -0.8948 0.3157
vn -0.0550 -0.9970 0.0550
vn -0.8479 -0.3971 0.3512
vn -0.8901 0.2678 0.3687
vn -0.4017 0.9006 0.1664
vn -0.1575 0.9854 0.0652
vn 0.0111 -0.9999 -0.0111
vn -0.6772 0.6802 0.2805
vn -0.0718 -0.9970 0.0297
vn -0.4124 -0.8948 0.1708
vn -0.9635 0.2678 -0.0000
vn -0.9178 -0.3971 0.0000
vn 0.0146 -0.9999 -0.0060
vn -0.7330 0.6802 -0.0000
vn -0.4347 0.9006 0.0000
vn -0.1705 0.9854 0.0000
vn -0.4464 -0.8948 0.0000
vn -0.0777 -0.9970 -0.0000
vn -0.8901 0.2678 -0.3687
vn -0.8479 -0.3971 -0.3512
vn 0.0158 -0.9999 -0.0000
vn -0.6772 0.6802 -0.2805
vn -0.1575 0.9854 -0.0652
vn -0.4016 0.9006 -0.1664
vn -0.4124 -0.8948 -0.1708
vn -0.6490 -0.3971 -0.6490
vn -0.6813 0.2678 -0.6813
vn -0.0718 -0.9970 -0.0297
vn -0.5183 0.6802 -0.5183
vn -0.3074 0.9006 -0.3074
vn -0.1205 0.9854 -0.1205
vn 0.0146 -0.9999 0.0060
vn -0.3157 -0.8948 -0.3157
vn -0.0550 -0.9970 -0.0550
vn -0.0652 0.9854 -0.1575
vn 0.0111 -0.9999 0.0111
vn 0.0060 -0.9999 0.0146
vn 0.0000 -0.9999 0.0158
vn -0.1708 -0.8948 -0.4124
vn -0.0297 -0.9970 -0.0718
vn -0.0000 -0.9970 -0.0777
vn -0.0000 0.9854 -0.1705
usemtl PandaMat
s 1
f 1/1/1 2/2/2 3/3/3
f 4/4/4 5/5/5 6/6/6
f 7/7/7 8/8/8 1/1/1
f 9/9/9 4/4/4 6/6/6
f 10/10/10 7/7/7 11/11/11
f 2/2/2 12/12/12 13/13/13
f 2/2/2 14/14/14 3/3/3
f 1/1/1 15/15/15 16/16/16
f 11/11/11 17/17/17 5/5/5
f 18/18/18 19/19/19 4/4/4
f 5/5/5 20/20/20 21/21/21
f 22/22/22 23/23/23 14/14/14
f 24/24/24 9/9/9 25/25/25
f 26/26/26 27/27/27 28/28/28
f 15/15/15 29/29/29 30/30/30
f 19/19/19 11/11/11 4/4/4
f 31/31/31 15/15/15 30/30/30
f 21/21/21 32/32/32 33/33/33
f 9/9/9 34/34/34 35/35/35
f 22/36/22 29/29/29 23/23/23
f 36/37/36 29/29/29 37/38/37
f 6/6/6 21/21/21 34/34/34
f 38/39/38 24/24/24 25/25/25
f 25/25/25 35/35/35 39/40/39
f 20/20/20 40/41/40 32/32/32
f 41/42/41 21/21/21 33/33/33
f 31/31/31 36/37/36 40/41/40
f 33/33/33 42/43/42 43/44/43
f 35/35/35 41/42/41 44/45/44
f 45/46/45 37/38/37 46/47/46
f 38/48/38 25/25/25 39/40/39
f 39/40/39 44/45/44 47/49/47
f 32/32/32 48/50/48 42/43/42
f 22/51/22 37/38/37 29/29/29
f 41/42/41 43/44/43 49/52/49
f 40/41/40 45/46/45 48/50/48
f 43/44/43 50/53/50 51/54/51
f 44/45/44 49/52/49 52/55/52
f 38/56/38 39/40/39 47/49/47
f 45/46/45 53/57/53 54/58/54
f 47/49/47 52/55/52 55/59/55
f 42/43/42 56/60/56 50/53/50
f 22/61/22 46/47/46 37/38/37
f 48/50/48 54/58/54 56/60/56
f 51/54/51 57/62/57 58/63/58
f 49/52/49 51/54/51 59/64/59
f 38/65/38 47/49/47 55/59/55
f 60/66/60 54/58/54 61/67/61
f 61/67/61 53/57/53 62/68/62
f 55/59/55 63/69/63 64/70/64
f 57/62/57 56/60/56 60/66/60
f 52/55/52 59/64/59 63/69/63
f 22/71/22 53/57/53 46/47/46
f 58/63/58 65/72/65 66/73/66
f 63/69/63 67/74/67 68/75/68
f 67/74/67 51/54/51 58/63/58
f 60/66/60 69/76/69 70/77/70
f 64/70/64 68/75/68 71/78/71
f 57/62/57 70/77/70 65/72/65
f 61/67/61 72/79/72 69/76/69
f 22/80/22 62/68/62 53/57/53
f 38/81/38 55/59/55 64/70/64
f 73/82/73 65/72/65 74/83/74
f 68/75/68 75/84/75 76/85/76
f 67/74/67 66/73/66 75/84/75
f 77/86/77 72/79/72 78/87/78
f 71/78/71 76/85/76 79/88/79
f 74/83/74 70/77/70 80/89/80
f 22/90/22 72/79/72 62/68/62
f 38/91/38 64/70/64 71/78/71
f 81/92/81 74/83/74 82/93/82
f 83/94/83 75/84/75 84/95/84
f 75/84/75 73/82/73 84/95/84
f 70/77/70 77/86/77 80/89/80
f 77/86/77 85/96/85 86/97/86
f 74/83/74 87/98/87 82/93/82
f 22/99/22 78/87/78 72/79/72
f 79/88/79 83/94/83 88/100/88
f 38/101/38 71/78/71 79/88/79
f 83/94/83 89/102/89 90/103/90
f 89/102/89 73/82/73 81/92/81
f 80/89/80 86/97/86 87/98/87
f 91/104/91 82/93/82 92/105/92
f 93/106/93 85/96/85 94/107/94
f 22/108/22 85/96/85 78/87/78
f 88/100/88 90/103/90 95/109/95
f 82/93/82 96/110/96 92/105/92
f 38/111/38 79/88/79 88/100/88
f 97/112/97 89/102/89 98/113/98
f 89/102/89 91/104/91 98/113/98
f 87/98/87 93/106/93 96/110/96
f 91/104/91 99/114/99 100/115/100
f 95/109/95 97/112/97 101/116/101
f 22/117/22 94/107/94 85/96/85
f 92/105/92 102/118/102 99/119/99
f 38/120/38 88/100/88 95/109/95
f 103/121/103 94/107/94 104/122/104
f 97/112/97 105/123/105 106/124/106
f 98/113/98 100/125/100 105/126/105
f 96/110/96 103/127/103 102/128/102
f 100/115/100 107/129/107 108/130/108
f 109/131/109 97/112/97 106/132/106
f 99/119/99 110/133/110 107/129/107
f 38/134/38 95/109/95 101/116/101
f 22/135/22 104/136/104 94/107/94
f 103/121/103 111/137/111 112/138/112
f 105/126/105 108/130/108 113/139/113
f 102/128/102 112/138/112 110/133/110
f 114/140/114 107/129/107 115/141/115
f 106/124/106 113/139/113 116/142/116
f 107/129/107 117/143/117 115/141/115
f 38/144/38 101/116/101 109/131/109
f 22/145/22 111/137/111 104/122/104
f 118/146/118 111/137/111 119/147/119
f 109/131/109 116/142/116 120/148/120
f 113/139/113 114/140/114 121/149/121
f 110/133/110 118/146/118 117/143/117
f 27/27/27 115/141/115 28/28/28
f 116/142/116 121/149/121 122/150/122
f 22/151/22 119/147/119 111/137/111
f 38/152/38 109/153/109 120/148/120
f 13/13/13 119/147/119 123/154/123
f 124/155/124 116/142/116 122/150/122
f 28/28/28 117/143/117 12/12/12
f 117/143/117 13/13/13 12/12/12
f 38/156/38 125/157/125 126/158/126
f 122/150/122 127/159/127 128/160/128
f 22/161/22 123/154/123 119/147/119
f 38/162/38 120/148/120 124/155/124
f 121/149/121 27/27/27 127/159/127
f 124/155/124 128/160/128 125/157/125
f 19/19/19 27/27/27 10/10/10
f 129/163/129 127/159/127 19/19/19
f 38/164/38 124/155/124 125/157/125
f 126/158/126 128/160/128 129/163/129
f 22/165/22 130/166/130 123/154/123
f 24/24/24 129/163/129 18/18/18
f 8/8/8 28/28/28 12/12/12
f 20/20/20 16/16/16 31/31/31
f 38/167/38 126/158/126 24/24/24
f 3/3/3 23/23/23 15/15/15
f 7/7/7 16/16/16 17/17/17
f 22/168/22 14/14/14 130/166/130
f 13/13/13 130/166/130 2/2/2
f 1/1/1 8/8/8 2/2/2
f 4/4/4 11/11/11 5/5/5
f 7/7/7 26/26/26 8/8/8
f 9/9/9 18/18/18 4/4/4
f 10/10/10 26/26/26 7/7/7
f 2/2/2 8/8/8 12/12/12
f 2/2/2 130/166/130 14/14/14
f 1/1/1 3/3/3 15/15/15
f 11/11/11 7/7/7 17/17/17
f 18/18/18 129/163/129 19/19/19
f 5/5/5 17/17/17 20/20/20
f 24/24/24 18/18/18 9/9/9
f 26/26/26 10/10/10 27/27/27
f 15/15/15 23/23/23 29/29/29
f 19/19/19 10/10/10 11/11/11
f 31/31/31 16/16/16 15/15/15
f 21/21/21 20/20/20 32/32/32
f 9/9/9 6/6/6 34/34/34
f 36/37/36 30/30/30 29/29/29
f 6/6/6 5/5/5 21/21/21
f 25/25/25 9/9/9 35/35/35
f 20/20/20 31/31/31 40/41/40
f 41/42/41 34/34/34 21/21/21
f 31/31/31 30/30/30 36/37/36
f 33/33/33 32/32/32 42/43/42
f 35/35/35 34/34/34 41/42/41
f 45/46/45 36/37/36 37/38/37
f 39/40/39 35/35/35 44/45/44
f 32/32/32 40/41/40 48/50/48
f 41/42/41 33/33/33 43/44/43
f 40/41/40 36/37/36 45/46/45
f 43/44/43 42/43/42 50/53/50
f 44/45/44 41/42/41 49/52/49
f 45/46/45 46/47/46 53/57/53
f 47/49/47 44/45/44 52/55/52
f 42/43/42 48/50/48 56/60/56
f 48/50/48 45/46/45 54/58/54
f 51/54/51 50/53/50 57/62/57
f 49/52/49 43/44/43 51/54/51
f 60/66/60 56/60/56 54/58/54
f 61/67/61 54/58/54 53/57/53
f 55/59/55 52/55/52 63/69/63
f 57/62/57 50/53/50 56/60/56
f 52/55/52 49/52/49 59/64/59
f 58/63/58 57/62/57 65/72/65
f 63/69/63 59/64/59 67/74/67
f 67/74/67 59/64/59 51/54/51
f 60/66/60 61/67/61 69/76/69
f 64/70/64 63/69/63 68/75/68
f 57/62/57 60/66/60 70/77/70
f 61/67/61 62/68/62 72/79/72
f 73/82/73 66/73/66 65/72/65
f 68/75/68 67/74/67 75/84/75
f 67/74/67 58/63/58 66/73/66
f 77/86/77 69/76/69 72/79/72
f 71/78/71 68/75/68 76/85/76
f 74/83/74 65/72/65 70/77/70
f 81/92/81 73/82/73 74/83/74
f 83/94/83 76/85/76 75/84/75
f 75/84/75 66/73/66 73/82/73
f 70/77/70 69/76/69 77/86/77
f 77/86/77 78/87/78 85/96/85
f 74/83/74 80/89/80 87/98/87
f 79/88/79 76/85/76 83/94/83
f 83/94/83 84/95/84 89/102/89
f 89/102/89 84/95/84 73/82/73
f 80/89/80 77/86/77 86/97/86
f 91/104/91 81/92/81 82/93/82
f 93/106/93 86/97/86 85/96/85
f 88/100/88 83/94/83 90/103/90
f 82/93/82 87/98/87 96/110/96
f 97/112/97 90/103/90 89/102/89
f 89/102/89 81/92/81 91/104/91
f 87/98/87 86/97/86 93/106/93
f 91/104/91 92/105/92 99/114/99
f 95/109/95 90/103/90 97/112/97
f 92/105/92 96/110/96 102/118/102
f 103/121/103 93/106/93 94/107/94
f 97/112/97 98/113/98 105/123/105
f 98/113/98 91/104/91 100/125/100
f 96/110/96 93/106/93 103/127/103
f 100/115/100 99/114/99 107/129/107
f 109/131/109 101/116/101 97/112/97
f 99/119/99 102/118/102 110/133/110
f 103/121/103 104/122/104 111/137/111
f 105/126/105 100/125/100 108/130/108
f 102/128/102 103/127/103 112/138/112
f 114/140/114 108/130/108 107/129/107
f 106/124/106 105/123/105 113/139/113
f 107/129/107 110/133/110 117/143/117
f 118/146/118 112/138/112 111/137/111
f 109/131/109 106/132/106 116/142/116
f 113/139/113 108/130/108 114/140/114
f 110/133/110 112/138/112 118/146/118
f 27/27/27 114/140/114 115/141/115
f 116/142/116 113/139/113 121/149/121
f 13/13/13 118/146/118 119/147/119
f 124/155/124 120/148/120 116/142/116
f 28/28/28 115/141/115 117/143/117
f 117/143/117 118/146/118 13/13/13
f 122/150/122 121/149/121 127/159/127
f 121/149/121 114/140/114 27/27/27
f 124/155/124 122/150/122 128/160/128
f 19/19/19 127/159/127 27/27/27
f 129/163/129 128/160/128 127/159/127
f 126/158/126 125/157/125 128/160/128
f 24/24/24 126/158/126 129/163/129
f 8/8/8 26/26/26 28/28/28
f 20/20/20 17/17/17 16/16/16
f 3/3/3 14/14/14 23/23/23
f 7/7/7 1/1/1 16/16/16
f 13/13/13 123/154/123 130/166/130
