# Blender v3.0.0 OBJ File: ''
# www.blender.org
mtllib dough.mtl
o Food_Dough_Dough
v 0.000000 0.088218 -0.018872
v 0.000000 0.078917 -0.053744
v 0.000000 0.060621 -0.080434
v 0.000000 0.037599 -0.094878
v 0.000000 0.017087 -0.094878
v 0.000000 0.000544 -0.053744
v 0.007222 0.088218 -0.017436
v 0.020567 0.078917 -0.049653
v 0.030781 0.060621 -0.074311
v 0.036308 0.037599 -0.087656
v 0.036308 0.017087 -0.087656
v 0.030781 0.004572 -0.074311
v 0.020567 0.000544 -0.049653
v 0.007222 0.001054 -0.017436
v 0.013345 0.088218 -0.013345
v 0.038003 0.078917 -0.038003
v 0.056875 0.060621 -0.056875
v 0.067089 0.037599 -0.067089
v 0.067089 0.017087 -0.067089
v 0.056875 0.004572 -0.056875
v 0.038003 0.000544 -0.038003
v 0.013345 0.001054 -0.013345
v 0.017436 0.088218 -0.007222
v 0.049653 0.078917 -0.020567
v 0.074311 0.060621 -0.030781
v 0.087656 0.037599 -0.036308
v 0.087656 0.017087 -0.036308
v 0.074311 0.004572 -0.030781
v 0.049653 0.000544 -0.020567
v 0.017436 0.001054 -0.007222
v 0.018872 0.088218 0.000000
v 0.053744 0.078917 0.000000
v 0.080434 0.060621 0.000000
v 0.094878 0.037599 0.000000
v 0.094878 0.017087 0.000000
v 0.080434 0.004572 0.000000
v 0.053744 0.000544 0.000000
v 0.018872 0.001054 0.000000
v 0.017436 0.088218 0.007222
v 0.049653 0.078917 0.020567
v 0.074311 0.060621 0.030781
v 0.087656 0.037599 0.036308
v 0.087656 0.017087 0.036308
v 0.074311 0.004572 0.030781
v 0.049653 0.000544 0.020567
v 0.017436 0.001054 0.007222
v 0.013345 0.088218 0.013345
v 0.038003 0.078917 0.038003
v 0.056875 0.060621 0.056875
v 0.067089 0.037599 0.067089
v 0.067089 0.017087 0.067089
v 0.056875 0.004572 0.056875
v 0.038003 0.000544 0.038003
v 0.013345 0.001054 0.013345
v 0.000000 0.001379 0.000000
v 0.007222 0.088218 0.017436
v 0.020567 0.078917 0.049653
v 0.030781 0.060621 0.074311
v 0.036308 0.037599 0.087656
v 0.036308 0.017087 0.087656
v 0.030781 0.004572 0.074311
v 0.020567 0.000544 0.049653
v 0.007222 0.001054 0.017436
v -0.000000 0.088218 0.018872
v 0.000000 0.078917 0.053744
v -0.000000 0.060621 0.080434
v -0.000000 0.037599 0.094878
v -0.000000 0.017087 0.094878
v -0.000000 0.004572 0.080434
v -0.000000 0.000544 0.053744
v 0.000000 0.001054 0.018872
v -0.007222 0.088218 0.017436
v -0.020567 0.078917 0.049653
v -0.030781 0.060621 0.074311
v -0.036308 0.037599 0.087656
v -0.036308 0.017087 0.087656
v -0.030781 0.004572 0.074311
v -0.020567 0.000544 0.049653
v -0.007222 0.001054 0.017436
v -0.000000 0.089294 0.000000
v -0.013345 0.088218 0.013345
v -0.038003 0.078917 0.038003
v -0.056875 0.060621 0.056875
v -0.067089 0.037599 0.067089
v -0.067089 0.017087 0.067089
v -0.056875 0.004572 0.056875
v -0.038003 0.000544 0.038003
v -0.013345 0.001054 0.013345
v -0.017436 0.088218 0.007222
v -0.049653 0.078917 0.020567
v -0.074311 0.060621 0.030781
v -0.087656 0.037599 0.036308
v -0.087656 0.017087 0.036308
v -0.074311 0.004572 0.030781
v -0.049653 0.000544 0.020567
v -0.017436 0.001054 0.007222
v -0.018872 0.088218 0.000000
v -0.053744 0.078917 0.000000
v -0.080434 0.060621 0.000000
v -0.094878 0.037599 0.000000
v -0.094878 0.017087 0.000000
v -0.080434 0.004572 0.000000
v -0.053744 0.000544 0.000000
v -0.018872 0.001054 0.000000
v -0.017436 0.088218 -0.007222
v -0.049653 0.078917 -0.020567
v -0.074311 0.060621 -0.030781
v -0.087656 0.037599 -0.036308
v -0.087656 0.017087 -0.036308
v -0.074311 0.004572 -0.030781
v -0.049653 0.000544 -0.020567
v -0.017436 0.001054 -0.007222
v -0.013345 0.088218 -0.013345
v -0.038003 0.078917 -0.038003
v -0.056875 0.060621 -0.056875
v -0.067089 0.037599 -0.067089
v -0.067089 0.017087 -0.067089
v -0.056875 0.004572 -0.056875
v -0.038003 0.000544 -0.038003
v -0.013345 0.001054 -0.013345
v -0.007222 0.088218 -0.017436
v -0.020567 0.078917 -0.049653
v -0.030781 0.060621 -0.074311
v -0.036308 0.037599 -0.087656
v -0.036308 0.017087 -0.087656
v -0.030781 0.004572 -0.074311
v -0.020567 0.000544 -0.049653
v -0.007222 0.001054 -0.017436
v 0.000000 0.004572 -0.080434
v 0.000000 0.001054 -0.018872
vt 0.771039 0.801453
vt 0.772719 0.804813
vt 0.771039 0.804813
vt 0.771039 0.791371
vt 0.769359 0.794731
vt 0.769359 0.791371
vt 0.771039 0.798092
vt 0.772719 0.801453
vt 0.769359 0.788011
vt 0.772719 0.794731
vt 0.771039 0.794731
vt 0.774400 0.801453
vt 0.774400 0.804813
vt 0.771039 0.808174
vt 0.769359 0.804813
vt 0.769359 0.801453
vt 0.769359 0.798092
vt 0.771039 0.788011
vt 0.772719 0.791371
vt 0.767679 0.798092
vt 0.767679 0.794731
vt 0.769779 0.809854
vt 0.769359 0.808174
vt 0.771039 0.784649
vt 0.769359 0.784649
vt 0.772719 0.798092
vt 0.774400 0.794731
vt 0.774400 0.798092
vt 0.767679 0.808174
vt 0.767679 0.804813
vt 0.767679 0.801453
vt 0.765998 0.798092
vt 0.765998 0.794731
vt 0.767679 0.791371
vt 0.767679 0.788011
vt 0.768100 0.809854
vt 0.765998 0.804813
vt 0.765998 0.808174
vt 0.770619 0.782970
vt 0.767679 0.784649
vt 0.765998 0.801453
vt 0.765998 0.791371
vt 0.764319 0.798092
vt 0.764319 0.794731
vt 0.765998 0.788011
vt 0.764319 0.804813
vt 0.764319 0.808174
vt 0.768940 0.782970
vt 0.765998 0.784649
vt 0.764319 0.801453
vt 0.766419 0.809854
vt 0.764319 0.791371
vt 0.762638 0.798092
vt 0.762638 0.794731
vt 0.764319 0.788011
vt 0.767258 0.782970
vt 0.762638 0.808174
vt 0.762638 0.804813
vt 0.764319 0.784649
vt 0.762638 0.801453
vt 0.764738 0.809854
vt 0.760957 0.798092
vt 0.760957 0.794731
vt 0.762638 0.791371
vt 0.765579 0.782970
vt 0.760957 0.801453
vt 0.760957 0.804813
vt 0.760957 0.808174
vt 0.762638 0.788011
vt 0.762638 0.784649
vt 0.763059 0.809854
vt 0.759278 0.798092
vt 0.759278 0.794731
vt 0.760957 0.791371
vt 0.760957 0.788011
vt 0.759278 0.804813
vt 0.759278 0.801453
vt 0.760957 0.784649
vt 0.759278 0.808174
vt 0.761378 0.809854
vt 0.763898 0.782970
vt 0.757597 0.794731
vt 0.757597 0.798092
vt 0.759278 0.791371
vt 0.759278 0.788011
vt 0.757597 0.804813
vt 0.757597 0.808174
vt 0.759278 0.784649
vt 0.757597 0.801453
vt 0.759698 0.809854
vt 0.762219 0.782970
vt 0.755916 0.794731
vt 0.755916 0.798092
vt 0.757597 0.788011
vt 0.757597 0.791371
vt 0.755916 0.808174
vt 0.755916 0.804813
vt 0.755916 0.801453
vt 0.758018 0.809854
vt 0.757597 0.784649
vt 0.760538 0.782970
vt 0.755916 0.791371
vt 0.755916 0.788011
vt 0.754237 0.794731
vt 0.754237 0.798092
vt 0.754237 0.804813
vt 0.754237 0.808174
vt 0.756337 0.809854
vt 0.755916 0.784649
vt 0.754237 0.801453
vt 0.758857 0.782970
vt 0.754237 0.788011
vt 0.754237 0.791371
vt 0.779441 0.798092
vt 0.752556 0.794731
vt 0.754237 0.784649
vt 0.754657 0.809854
vt 0.779441 0.801453
vt 0.752556 0.798092
vt 0.757178 0.782970
vt 0.752556 0.804813
vt 0.779441 0.808174
vt 0.779441 0.791371
vt 0.752556 0.788011
vt 0.779441 0.794731
vt 0.752556 0.791371
vt 0.779441 0.804813
vt 0.752556 0.801453
vt 0.777760 0.798092
vt 0.777760 0.794731
vt 0.752556 0.784649
vt 0.779441 0.788011
vt 0.777760 0.801453
vt 0.755497 0.782970
vt 0.752977 0.809854
vt 0.752556 0.808174
vt 0.777760 0.808174
vt 0.777760 0.804813
vt 0.777760 0.791371
vt 0.776081 0.794731
vt 0.776081 0.798092
vt 0.777760 0.788011
vt 0.776081 0.801453
vt 0.753816 0.782970
vt 0.778181 0.809854
vt 0.776081 0.804813
vt 0.776081 0.808174
vt 0.777760 0.784649
vt 0.776081 0.791371
vt 0.776081 0.788011
vt 0.776500 0.809854
vt 0.779022 0.782970
vt 0.779441 0.784649
vt 0.774400 0.808174
vt 0.776081 0.784649
vt 0.773981 0.782970
vt 0.774400 0.784649
vt 0.772719 0.784649
vt 0.774400 0.791371
vt 0.774400 0.788011
vt 0.774820 0.809854
vt 0.777341 0.782970
vt 0.772719 0.788011
vt 0.775660 0.782970
vt 0.773140 0.809854
vt 0.772719 0.808174
vt 0.772299 0.782970
vt 0.771460 0.809854
vn 0.2805 0.6802 -0.6772
vn -0.0000 0.9006 -0.4347
vn 0.1664 0.9006 -0.4016
vn 0.1708 -0.8948 -0.4124
vn 0.6490 -0.3971 -0.6490
vn 0.3157 -0.8948 -0.3157
vn 0.3687 0.2678 -0.8901
vn -0.0000 0.6802 -0.7330
vn 0.0550 -0.9970 -0.0550
vn -0.0000 -0.3971 -0.9178
vn 0.3512 -0.3971 -0.8479
vn -0.2805 0.6802 -0.6772
vn -0.1664 0.9006 -0.4016
vn 0.0652 0.9854 -0.1575
vn 0.3074 0.9006 -0.3074
vn 0.5183 0.6802 -0.5183
vn 0.6813 0.2678 -0.6813
vn 0.0297 -0.9970 -0.0718
vn -0.0000 -0.8948 -0.4464
vn 0.8901 0.2678 -0.3687
vn 0.8479 -0.3971 -0.3512
vn -0.0000 1.0000 0.0000
vn 0.1205 0.9854 -0.1205
vn -0.0060 -0.9999 0.0146
vn -0.0111 -0.9999 0.0111
vn -0.0000 0.2678 -0.9635
vn -0.3512 -0.3971 -0.8479
vn -0.3687 0.2678 -0.8901
vn 0.1575 0.9854 -0.0652
vn 0.4016 0.9006 -0.1664
vn 0.6772 0.6802 -0.2805
vn 0.9635 0.2678 0.0000
vn 0.9178 -0.3971 0.0000
vn 0.4124 -0.8948 -0.1708
vn 0.0718 -0.9970 -0.0297
vn 0.4347 0.9006 0.0000
vn 0.1705 0.9854 -0.0000
vn 0.0000 -1.0000 -0.0000
vn -0.0146 -0.9999 0.0060
vn 0.7330 0.6802 0.0000
vn 0.4464 -0.8948 0.0000
vn 0.8901 0.2678 0.3687
vn 0.8479 -0.3971 0.3512
vn 0.0777 -0.9970 -0.0000
vn 0.4016 0.9006 0.1664
vn 0.1575 0.9854 0.0652
vn -0.0158 -0.9999 -0.0000
vn 0.6772 0.6802 0.2805
vn 0.4124 -0.8948 0.1708
vn 0.6813 0.2678 0.6813
vn 0.6490 -0.3971 0.6490
vn 0.0718 -0.9970 0.0297
vn 0.1205 0.9854 0.1205
vn 0.3074 0.9006 0.3074
vn -0.0146 -0.9999 -0.0060
vn 0.5183 0.6802 0.5183
vn 0.3687 0.2678 0.8901
vn 0.3512 -0.3971 0.8479
vn 0.3157 -0.8948 0.3157
vn 0.2805 0.6802 0.6772
vn 0.1664 0.9006 0.4016
vn 0.0652 0.9854 0.1575
vn 0.0550 -0.9970 0.0550
vn -0.0111 -0.9999 -0.0111
vn -0.0000 0.2678 0.9635
vn -0.0000 -0.3971 0.9178
vn 0.1708 -0.8948 0.4124
vn 0.0297 -0.9970 0.0718
vn -0.0000 0.9006 0.4347
vn -0.0000 0.6802 0.7330
vn -0.0060 -0.9999 -0.0146
vn -0.0000 0.9854 0.1705
vn -0.3512 -0.3971 0.8479
vn -0.3687 0.2678 0.8901
vn -0.0000 -0.8948 0.4464
vn 0.0000 -0.9970 0.0777
vn -0.1664 0.9006 0.4016
vn -0.0652 0.9854 0.1575
vn 0.0000 -0.9999 -0.0158
vn -0.2805 0.6802 0.6772
vn -0.6490 -0.3971 0.6490
vn -0.6813 0.2678 0.6813
vn -0.0297 -0.9970 0.0718
vn -0.1708 -0.8948 0.4124
vn -0.1205 0.9854 0.1205
vn -0.3074 0.9006 0.3074
vn -0.5183 0.6802 0.5183
vn 0.0060 -0.9999 -0.0146
vn -0.3157 -0.8948 0.3157
vn -0.0550 -0.9970 0.0550
vn -0.8479 -0.3971 0.3512
vn -0.8901 0.2678 0.3687
vn -0.4016 0.9006 0.1664
vn -0.1575 0.9854 0.0652
vn 0.0111 -0.9999 -0.0111
vn -0.6772 0.6802 0.2805
vn -0.0718 -0.9970 0.0297
vn -0.4124 -0.8948 0.1708
vn -0.9635 0.2678 -0.0000
vn -0.9178 -0.3971 -0.0000
vn 0.0146 -0.9999 -0.0060
vn -0.7330 0.6802 -0.0000
vn -0.4347 0.9006 -0.0000
vn -0.1705 0.9854 -0.0000
vn -0.4464 -0.8948 -0.0000
vn -0.0777 -0.9970 -0.0000
vn -0.8901 0.2678 -0.3687
vn -0.8479 -0.3971 -0.3512
vn 0.0158 -0.9999 -0.0000
vn -0.6772 0.6802 -0.2805
vn -0.1575 0.9854 -0.0652
vn -0.4016 0.9006 -0.1664
vn -0.4124 -0.8948 -0.1708
vn -0.6490 -0.3971 -0.6490
vn -0.6813 0.2678 -0.6813
vn -0.0718 -0.9970 -0.0297
vn -0.5183 0.6802 -0.5183
vn -0.3074 0.9006 -0.3074
vn -0.1205 0.9854 -0.1205
vn 0.0146 -0.9999 0.0060
vn -0.3157 -0.8948 -0.3157
vn -0.0550 -0.9970 -0.0550
vn -0.0652 0.9854 -0.1575
vn 0.0111 -0.9999 0.0111
vn 0.0060 -0.9999 0.0146
vn 0.0000 -0.9999 0.0158
vn -0.1708 -0.8948 -0.4124
vn -0.0297 -0.9970 -0.0718
vn -0.0000 -0.9970 -0.0777
vn -0.0000 0.9854 -0.1705
usemtl PandaMat
s 1
f 9/1/1 2/2/2 8/3/3
f 12/4/4 19/5/5 20/6/6
f 10/7/7 3/8/8 9/1/1
f 21/9/9 12/4/4 20/6/6
f 5/10/10 10/7/7 11/11/11
f 2/2/2 123/12/12 122/13/13
f 2/2/2 7/14/14 8/3/3
f 9/1/1 16/15/15 17/16/16
f 11/11/11 18/17/17 19/5/5
f 13/18/18 129/19/19 12/4/4
f 19/5/5 26/20/20 27/21/21
f 80/22/22 15/23/23 7/14/14
f 14/24/24 21/9/9 22/25/25
f 4/26/26 125/27/27 124/28/28
f 16/15/15 23/29/29 24/30/30
f 129/19/19 11/11/11 12/4/4
f 25/31/31 16/15/15 24/30/30
f 27/21/21 34/32/32 35/33/33
f 21/9/9 28/34/34 29/35/35
f 80/36/22 23/29/29 15/23/23
f 32/37/36 23/29/29 31/38/37
f 20/6/6 27/21/21 28/34/34
f 55/39/38 14/24/24 22/25/25
f 22/25/25 29/35/35 30/40/39
f 26/20/20 33/41/40 34/32/32
f 36/42/41 27/21/21 35/33/33
f 25/31/31 32/37/36 33/41/40
f 35/33/33 42/43/42 43/44/43
f 29/35/35 36/42/41 37/45/44
f 40/46/45 31/38/37 39/47/46
f 55/48/38 22/25/25 30/40/39
f 30/40/39 37/45/44 38/49/47
f 34/32/32 41/50/48 42/43/42
f 80/51/22 31/38/37 23/29/29
f 36/42/41 43/44/43 44/52/49
f 33/41/40 40/46/45 41/50/48
f 43/44/43 50/53/50 51/54/51
f 37/45/44 44/52/49 45/55/52
f 55/56/38 30/40/39 38/49/47
f 40/46/45 47/57/53 48/58/54
f 38/49/47 45/55/52 46/59/55
f 42/43/42 49/60/56 50/53/50
f 80/61/22 39/47/46 31/38/37
f 41/50/48 48/58/54 49/60/56
f 51/54/51 59/62/57 60/63/58
f 44/52/49 51/54/51 52/64/59
f 55/65/38 38/49/47 46/59/55
f 58/66/60 48/58/54 57/67/61
f 57/67/61 47/57/53 56/68/62
f 46/59/55 53/69/63 54/70/64
f 59/62/57 49/60/56 58/66/60
f 45/55/52 52/64/59 53/69/63
f 80/71/22 47/57/53 39/47/46
f 60/63/58 67/72/65 68/73/66
f 53/69/63 61/74/67 62/75/68
f 61/74/67 51/54/51 60/63/58
f 58/66/60 65/76/69 66/77/70
f 54/70/64 62/75/68 63/78/71
f 59/62/57 66/77/70 67/72/65
f 57/67/61 64/79/72 65/76/69
f 80/80/22 56/68/62 47/57/53
f 55/81/38 46/59/55 54/70/64
f 76/82/73 67/72/65 75/83/74
f 62/75/68 69/84/75 70/85/76
f 61/74/67 68/73/66 69/84/75
f 73/86/77 64/79/72 72/87/78
f 63/78/71 70/85/76 71/88/79
f 75/83/74 66/77/70 74/89/80
f 80/90/22 64/79/72 56/68/62
f 55/91/38 54/70/64 63/78/71
f 85/92/81 75/83/74 84/93/82
f 78/94/83 69/84/75 77/95/84
f 69/84/75 76/82/73 77/95/84
f 66/77/70 73/86/77 74/89/80
f 73/86/77 81/96/85 82/97/86
f 75/83/74 83/98/87 84/93/82
f 80/99/22 72/87/78 64/79/72
f 71/88/79 78/94/83 79/100/88
f 55/101/38 63/78/71 71/88/79
f 78/94/83 86/102/89 87/103/90
f 86/102/89 76/82/73 85/92/81
f 74/89/80 82/97/86 83/98/87
f 93/104/91 84/93/82 92/105/92
f 90/106/93 81/96/85 89/107/94
f 80/108/22 81/96/85 72/87/78
f 79/100/88 87/103/90 88/109/95
f 84/93/82 91/110/96 92/105/92
f 55/111/38 71/88/79 79/100/88
f 95/112/97 86/102/89 94/113/98
f 86/102/89 93/104/91 94/113/98
f 83/98/87 90/106/93 91/110/96
f 93/104/91 100/114/99 101/115/100
f 88/109/95 95/112/97 96/116/101
f 80/117/22 89/107/94 81/96/85
f 92/105/92 99/118/102 100/119/99
f 55/120/38 79/100/88 88/109/95
f 98/121/103 89/107/94 97/122/104
f 95/112/97 102/123/105 103/124/106
f 94/113/98 101/125/100 102/126/105
f 91/110/96 98/127/103 99/128/102
f 101/115/100 108/129/107 109/130/108
f 104/131/109 95/112/97 103/132/106
f 100/119/99 107/133/110 108/129/107
f 55/134/38 88/109/95 96/116/101
f 80/135/22 97/136/104 89/107/94
f 98/121/103 105/137/111 106/138/112
f 102/126/105 109/130/108 110/139/113
f 99/128/102 106/138/112 107/133/110
f 117/140/114 108/129/107 116/141/115
f 103/124/106 110/139/113 111/142/116
f 108/129/107 115/143/117 116/141/115
f 55/144/38 96/116/101 104/131/109
f 80/145/22 105/137/111 97/122/104
f 114/146/118 105/137/111 113/147/119
f 104/131/109 111/142/116 112/148/120
f 110/139/113 117/140/114 118/149/121
f 107/133/110 114/146/118 115/143/117
f 125/27/27 116/141/115 124/28/28
f 111/142/116 118/149/121 119/150/122
f 80/151/22 113/147/119 105/137/111
f 55/152/38 104/153/109 112/148/120
f 122/13/13 113/147/119 121/154/123
f 120/155/124 111/142/116 119/150/122
f 124/28/28 115/143/117 123/12/12
f 115/143/117 122/13/13 123/12/12
f 55/156/38 128/157/125 130/158/126
f 119/150/122 126/159/127 127/160/128
f 80/161/22 121/154/123 113/147/119
f 55/162/38 112/148/120 120/155/124
f 118/149/121 125/27/27 126/159/127
f 120/155/124 127/160/128 128/157/125
f 129/19/19 125/27/27 5/10/10
f 6/163/129 126/159/127 129/19/19
f 55/164/38 120/155/124 128/157/125
f 130/158/126 127/160/128 6/163/129
f 80/165/22 1/166/130 121/154/123
f 14/24/24 6/163/129 13/18/18
f 3/8/8 124/28/28 123/12/12
f 26/20/20 17/16/16 25/31/31
f 55/167/38 130/158/126 14/24/24
f 8/3/3 15/23/23 16/15/15
f 10/7/7 17/16/16 18/17/17
f 80/168/22 7/14/14 1/166/130
f 122/13/13 1/166/130 2/2/2
f 9/1/1 3/8/8 2/2/2
f 12/4/4 11/11/11 19/5/5
f 10/7/7 4/26/26 3/8/8
f 21/9/9 13/18/18 12/4/4
f 5/10/10 4/26/26 10/7/7
f 2/2/2 3/8/8 123/12/12
f 2/2/2 1/166/130 7/14/14
f 9/1/1 8/3/3 16/15/15
f 11/11/11 10/7/7 18/17/17
f 13/18/18 6/163/129 129/19/19
f 19/5/5 18/17/17 26/20/20
f 14/24/24 13/18/18 21/9/9
f 4/26/26 5/10/10 125/27/27
f 16/15/15 15/23/23 23/29/29
f 129/19/19 5/10/10 11/11/11
f 25/31/31 17/16/16 16/15/15
f 27/21/21 26/20/20 34/32/32
f 21/9/9 20/6/6 28/34/34
f 32/37/36 24/30/30 23/29/29
f 20/6/6 19/5/5 27/21/21
f 22/25/25 21/9/9 29/35/35
f 26/20/20 25/31/31 33/41/40
f 36/42/41 28/34/34 27/21/21
f 25/31/31 24/30/30 32/37/36
f 35/33/33 34/32/32 42/43/42
f 29/35/35 28/34/34 36/42/41
f 40/46/45 32/37/36 31/38/37
f 30/40/39 29/35/35 37/45/44
f 34/32/32 33/41/40 41/50/48
f 36/42/41 35/33/33 43/44/43
f 33/41/40 32/37/36 40/46/45
f 43/44/43 42/43/42 50/53/50
f 37/45/44 36/42/41 44/52/49
f 40/46/45 39/47/46 47/57/53
f 38/49/47 37/45/44 45/55/52
f 42/43/42 41/50/48 49/60/56
f 41/50/48 40/46/45 48/58/54
f 51/54/51 50/53/50 59/62/57
f 44/52/49 43/44/43 51/54/51
f 58/66/60 49/60/56 48/58/54
f 57/67/61 48/58/54 47/57/53
f 46/59/55 45/55/52 53/69/63
f 59/62/57 50/53/50 49/60/56
f 45/55/52 44/52/49 52/64/59
f 60/63/58 59/62/57 67/72/65
f 53/69/63 52/64/59 61/74/67
f 61/74/67 52/64/59 51/54/51
f 58/66/60 57/67/61 65/76/69
f 54/70/64 53/69/63 62/75/68
f 59/62/57 58/66/60 66/77/70
f 57/67/61 56/68/62 64/79/72
f 76/82/73 68/73/66 67/72/65
f 62/75/68 61/74/67 69/84/75
f 61/74/67 60/63/58 68/73/66
f 73/86/77 65/76/69 64/79/72
f 63/78/71 62/75/68 70/85/76
f 75/83/74 67/72/65 66/77/70
f 85/92/81 76/82/73 75/83/74
f 78/94/83 70/85/76 69/84/75
f 69/84/75 68/73/66 76/82/73
f 66/77/70 65/76/69 73/86/77
f 73/86/77 72/87/78 81/96/85
f 75/83/74 74/89/80 83/98/87
f 71/88/79 70/85/76 78/94/83
f 78/94/83 77/95/84 86/102/89
f 86/102/89 77/95/84 76/82/73
f 74/89/80 73/86/77 82/97/86
f 93/104/91 85/92/81 84/93/82
f 90/106/93 82/97/86 81/96/85
f 79/100/88 78/94/83 87/103/90
f 84/93/82 83/98/87 91/110/96
f 95/112/97 87/103/90 86/102/89
f 86/102/89 85/92/81 93/104/91
f 83/98/87 82/97/86 90/106/93
f 93/104/91 92/105/92 100/114/99
f 88/109/95 87/103/90 95/112/97
f 92/105/92 91/110/96 99/118/102
f 98/121/103 90/106/93 89/107/94
f 95/112/97 94/113/98 102/123/105
f 94/113/98 93/104/91 101/125/100
f 91/110/96 90/106/93 98/127/103
f 101/115/100 100/114/99 108/129/107
f 104/131/109 96/116/101 95/112/97
f 100/119/99 99/118/102 107/133/110
f 98/121/103 97/122/104 105/137/111
f 102/126/105 101/125/100 109/130/108
f 99/128/102 98/127/103 106/138/112
f 117/140/114 109/130/108 108/129/107
f 103/124/106 102/123/105 110/139/113
f 108/129/107 107/133/110 115/143/117
f 114/146/118 106/138/112 105/137/111
f 104/131/109 103/132/106 111/142/116
f 110/139/113 109/130/108 117/140/114
f 107/133/110 106/138/112 114/146/118
f 125/27/27 117/140/114 116/141/115
f 111/142/116 110/139/113 118/149/121
f 122/13/13 114/146/118 113/147/119
f 120/155/124 112/148/120 111/142/116
f 124/28/28 116/141/115 115/143/117
f 115/143/117 114/146/118 122/13/13
f 119/150/122 118/149/121 126/159/127
f 118/149/121 117/140/114 125/27/27
f 120/155/124 119/150/122 127/160/128
f 129/19/19 126/159/127 125/27/27
f 6/163/129 127/160/128 126/159/127
f 130/158/126 128/157/125 127/160/128
f 14/24/24 130/158/126 6/163/129
f 3/8/8 4/26/26 124/28/28
f 26/20/20 18/17/17 17/16/16
f 8/3/3 7/14/14 15/23/23
f 10/7/7 9/1/1 17/16/16
f 122/13/13 121/154/123 1/166/130
