# Blender v3.0.0 OBJ File: 'egg.blend'
# www.blender.org
mtllib egg.mtl
v 2.357460 0.074587 -0.976500
v 1.830240 0.030727 -1.830240
v 1.804320 0.074587 -1.804320
v 2.551710 0.074587 0.000000
v 2.357460 0.074587 0.976500
v 2.588340 0.030727 0.000000
v 1.804320 0.074587 1.804320
v 2.391330 0.030727 0.990510
v 0.990510 0.030726 2.391330
v 1.830240 0.030726 1.830240
v 0.976500 0.074586 2.357460
v 0.000000 0.030726 2.588340
v 0.000000 0.074586 2.551710
v -0.990510 0.030726 2.391330
v -0.976500 0.074586 2.357460
v -1.830240 0.030726 1.830240
v -1.804320 0.074587 1.804320
v -2.391330 0.030727 0.990510
v -2.357460 0.074587 0.976500
v 0.976500 0.074587 -2.357460
v 0.990510 0.030727 -2.391330
v 1.672020 0.206257 -1.672020
v 0.904890 0.206257 -2.184600
v 0.000000 0.298597 -1.960740
v 0.854850 0.255817 -2.063820
v 0.000000 0.255817 -2.233860
v 0.000000 0.206257 -2.364600
v 1.579560 0.255817 -1.579560
v 2.184600 0.206257 -0.904890
v 0.750360 0.298597 -1.811490
v 2.063820 0.255817 -0.854850
v 1.811490 0.298597 -0.750360
v 1.386450 0.298597 -1.386450
v 2.233860 0.255817 0.000000
v 2.364600 0.206257 0.000000
v 2.184600 0.206257 0.904890
v 1.960740 0.298597 0.000000
v 2.063820 0.255817 0.854850
v 1.672020 0.206257 1.672020
v 1.579560 0.255817 1.579560
v 1.811490 0.298597 0.750360
v 0.854850 0.255816 2.063820
v 0.904890 0.206256 2.184600
v 0.000000 0.206256 2.364600
v 1.386450 0.298597 1.386450
v 0.000000 0.255816 2.233860
v -0.904890 0.206256 2.184600
v 0.000000 0.298597 1.960740
v 0.750360 0.298597 1.811490
v -0.854850 0.255816 2.063820
v -1.672020 0.206257 1.672020
v -0.750360 0.298597 1.811490
v -1.579560 0.255817 1.579560
v -2.184600 0.206257 0.904890
v -1.386450 0.298597 1.386450
v -2.063820 0.255817 0.854850
v -2.364600 0.206257 0.000000
v -1.811490 0.298597 0.750360
v -2.233860 0.255817 0.000000
v -2.357460 0.074587 -0.976500
v -2.551710 0.074587 0.000000
v -2.063820 0.255817 -0.854850
v -2.184600 0.206257 -0.904890
v -1.672020 0.206257 -1.672020
v -1.960740 0.298597 0.000000
v -1.579560 0.255817 -1.579560
v -0.904890 0.206257 -2.184600
v -1.804320 0.074587 -1.804320
v -1.386450 0.298597 -1.386450
v -1.811490 0.298597 -0.750360
v -0.854850 0.255817 -2.063820
v -0.976500 0.074587 -2.357460
v -0.750330 0.298597 -1.811490
v 0.557850 0.197557 -1.569300
v 0.965760 0.298267 -1.549410
v 0.969720 0.197557 -1.569300
v 0.592530 0.484327 -1.394820
v 0.878190 0.626737 -1.109160
v 0.935010 0.484327 -1.394820
v 0.803970 0.703837 -0.735960
v 1.089600 0.626737 -1.021590
v 0.763770 0.713737 -0.533970
v 0.878190 0.703837 -0.705210
v 1.251420 0.484327 -1.263780
v 1.338990 0.298267 -1.394820
v 0.935010 0.703837 -0.648390
v 1.251420 0.626737 -0.859800
v 1.624620 0.298267 -1.109160
v 1.350240 0.197557 -1.411680
v 1.338990 0.626737 -0.648390
v 0.965760 0.703837 -0.574140
v 1.624620 0.484327 -0.705210
v 1.493580 0.484327 -1.021590
v 1.779240 0.298267 -0.735960
v 1.641510 0.197557 -1.120440
v 1.338990 0.626737 -0.419550
v 0.965760 0.703837 -0.493800
v 1.779240 0.298267 -0.331980
v 1.799130 0.197557 -0.739920
v 0.935010 0.703837 -0.419550
v 1.624620 0.484327 -0.362730
v 1.624620 0.298267 0.041250
v 1.799130 0.197557 -0.328020
v 1.251420 0.626737 -0.208140
v 1.089600 0.626737 -0.046320
v 0.878190 0.703837 -0.362730
v 1.338990 0.298267 0.326880
v 1.641510 0.197557 0.052500
v 1.251420 0.484327 0.195840
v 1.493580 0.484327 -0.046320
v 0.803970 0.703837 -0.331980
v 0.969720 0.197557 0.501360
v 1.350240 0.197557 0.343740
v 0.878190 0.626737 0.041250
v 0.649350 0.626737 0.041250
v 0.723600 0.703837 -0.331980
v 0.935010 0.484327 0.326880
v 0.561780 0.298267 0.481470
v 0.965760 0.298267 0.481470
v 0.437940 0.626737 -0.046320
v 0.649350 0.703837 -0.362730
v 0.188580 0.298267 0.326880
v 0.557850 0.197557 0.501360
v 0.592530 0.484327 0.326880
v 0.592530 0.703837 -0.419550
v 0.561780 0.703837 -0.493800
v 0.276150 0.626737 -0.208140
v 0.276150 0.484327 0.195840
v 0.188580 0.626737 -0.419550
v -0.097080 0.298267 0.041250
v 0.177300 0.197557 0.343740
v 0.033990 0.484327 -0.046320
v 0.561780 0.703837 -0.574140
v -0.097080 0.484327 -0.362730
v -0.251670 0.298267 -0.331980
v -0.113940 0.197557 0.052500
v 0.188580 0.626737 -0.648390
v -0.097080 0.484327 -0.705210
v -0.271560 0.197557 -0.739920
v -0.271560 0.197557 -0.328020
v 0.592530 0.703837 -0.648390
v 0.033990 0.484327 -1.021590
v -0.251670 0.298267 -0.735960
v -0.113940 0.197557 -1.120440
v 0.437940 0.626737 -1.021590
v 0.276150 0.626737 -0.859800
v 0.649350 0.703837 -0.705210
v 0.276150 0.484327 -1.263780
v -0.097080 0.298267 -1.109160
v 0.177300 0.197557 -1.411680
v 0.723600 0.703837 -0.735960
v 0.188580 0.298267 -1.394820
v 0.561780 0.298267 -1.549410
v 0.649350 0.626737 -1.109160
v 0.000000 0.074587 -2.551710
v -2.391015 0.030984 0.990392
v 0.990332 0.031033 -2.391610
v -2.357460 0.033708 -0.976500
v -2.551710 0.033708 0.000000
v -1.804320 0.033708 -1.804320
v -0.976500 0.033708 -2.357460
v 0.000000 0.033708 -2.551710
vt 0.023303 0.983677
vt 0.024538 0.982059
vt 0.024538 0.983677
vt 0.020834 0.983677
vt 0.022069 0.982059
vt 0.022069 0.983677
vt 0.019600 0.983677
vt 0.020834 0.982059
vt 0.018365 0.982059
vt 0.019600 0.982059
vt 0.018365 0.983677
vt 0.017131 0.982059
vt 0.017131 0.983677
vt 0.015896 0.982059
vt 0.015896 0.983677
vt 0.014662 0.982059
vt 0.014662 0.983677
vt 0.013427 0.982059
vt 0.013427 0.983677
vt 0.025772 0.983677
vt 0.025772 0.982059
vt 0.022039 0.986048
vt 0.022039 0.979344
vt 0.015335 0.979344
vt 0.024545 0.989263
vt 0.025764 0.989263
vt 0.016472 0.987898
vt 0.018185 0.988105
vt 0.016472 0.988446
vt 0.110543 0.985675
vt 0.110522 0.985721
vt 0.110522 0.985675
vt 0.110501 0.985721
vt 0.110501 0.985675
vt 0.023311 0.989263
vt 0.017976 0.987600
vt 0.019638 0.987135
vt 0.110480 0.985721
vt 0.110480 0.985675
vt 0.020103 0.985472
vt 0.019251 0.986748
vt 0.110459 0.985721
vt 0.110459 0.985675
vt 0.020842 0.989263
vt 0.022061 0.989263
vt 0.020402 0.983968
vt 0.020609 0.985681
vt 0.110438 0.985721
vt 0.110438 0.985675
vt 0.019607 0.989263
vt 0.020609 0.982254
vt 0.020950 0.983968
vt 0.110417 0.985721
vt 0.110417 0.985675
vt 0.020103 0.982462
vt 0.019638 0.980801
vt 0.110396 0.985721
vt 0.110396 0.985675
vt 0.017138 0.989263
vt 0.018358 0.989263
vt 0.019251 0.981188
vt 0.018185 0.979830
vt 0.110375 0.985721
vt 0.110375 0.985675
vt 0.015904 0.989263
vt 0.016472 0.980036
vt 0.017976 0.980336
vt 0.110354 0.985721
vt 0.110354 0.985675
vt 0.014669 0.989263
vt 0.014967 0.980336
vt 0.016472 0.979490
vt 0.110333 0.985721
vt 0.110333 0.985675
vt 0.013435 0.989263
vt 0.013692 0.981188
vt 0.014758 0.979830
vt 0.110312 0.985675
vt 0.110312 0.985721
vt 0.012201 0.989263
vt 0.012840 0.982462
vt 0.013305 0.980801
vt 0.110291 0.985675
vt 0.110291 0.985721
vt 0.010958 0.983677
vt 0.012193 0.983677
vt 0.011993 0.983968
vt 0.012334 0.982254
vt 0.110270 0.985721
vt 0.110269 0.985675
vt 0.009732 0.989263
vt 0.010951 0.989263
vt 0.012541 0.983968
vt 0.012334 0.985681
vt 0.110249 0.985721
vt 0.110249 0.985675
vt 0.008497 0.989263
vt 0.009724 0.983677
vt 0.013692 0.986748
vt 0.012840 0.985472
vt 0.110228 0.985721
vt 0.110227 0.985675
vt 0.007263 0.989263
vt 0.008489 0.983677
vt 0.014967 0.987600
vt 0.013305 0.987135
vt 0.110207 0.985721
vt 0.110206 0.985675
vt 0.014758 0.988105
vt 0.045394 0.363093
vt 0.045391 0.363096
vt 0.045391 0.363093
vt 0.045394 0.363102
vt 0.045391 0.363108
vt 0.045391 0.363102
vt 0.045391 0.363113
vt 0.045388 0.363108
vt 0.045389 0.363116
vt 0.045388 0.363113
vt 0.045388 0.363102
vt 0.045388 0.363096
vt 0.045385 0.363113
vt 0.045385 0.363108
vt 0.045385 0.363096
vt 0.045388 0.363093
vt 0.045383 0.363108
vt 0.045383 0.363113
vt 0.045383 0.363102
vt 0.045385 0.363102
vt 0.045383 0.363096
vt 0.045385 0.363093
vt 0.045380 0.363108
vt 0.045380 0.363113
vt 0.045380 0.363096
vt 0.045383 0.363093
vt 0.045377 0.363113
vt 0.045380 0.363102
vt 0.045377 0.363096
vt 0.045380 0.363093
vt 0.045377 0.363108
vt 0.045374 0.363108
vt 0.045374 0.363113
vt 0.045374 0.363096
vt 0.045377 0.363093
vt 0.045374 0.363102
vt 0.045377 0.363102
vt 0.045371 0.363113
vt 0.045371 0.363093
vt 0.045374 0.363093
vt 0.045371 0.363108
vt 0.045369 0.363108
vt 0.045369 0.363113
vt 0.045371 0.363102
vt 0.045369 0.363096
vt 0.045371 0.363096
vt 0.045366 0.363108
vt 0.045366 0.363113
vt 0.045366 0.363096
vt 0.045369 0.363093
vt 0.045369 0.363102
vt 0.045363 0.363113
vt 0.045360 0.363113
vt 0.045363 0.363108
vt 0.045366 0.363102
vt 0.045360 0.363108
vt 0.045363 0.363096
vt 0.045366 0.363093
vt 0.045363 0.363102
vt 0.045402 0.363113
vt 0.045360 0.363102
vt 0.045360 0.363096
vt 0.045363 0.363093
vt 0.045402 0.363108
vt 0.045402 0.363102
vt 0.045402 0.363093
vt 0.045360 0.363093
vt 0.045399 0.363113
vt 0.045399 0.363102
vt 0.045402 0.363096
vt 0.045399 0.363093
vt 0.045397 0.363108
vt 0.045399 0.363108
vt 0.045397 0.363113
vt 0.045397 0.363102
vt 0.045399 0.363096
vt 0.045397 0.363093
vt 0.045394 0.363113
vt 0.045397 0.363096
vt 0.045394 0.363096
vt 0.045394 0.363108
vt 0.026999 0.989263
vt 0.027007 0.983677
vt 0.010958 0.983677
vt 0.009724 0.983677
vt 0.007255 0.983677
vt 0.008489 0.983677
vt 0.013427 0.983677
vt 0.025772 0.983677
vt 0.027007 0.983677
vt 0.014308 0.980883
vt 0.020501 0.987075
vt 0.023428 0.982697
vt 0.023067 0.980883
vt 0.020501 0.978317
vt 0.018687 0.977956
vt 0.016873 0.978317
vt 0.110543 0.985721
vt 0.012193 0.983677
vt 0.007255 0.983677
vn 0.8410 -0.1490 -0.5201
vn 0.7989 -0.3490 -0.4899
vn 0.4849 0.7278 -0.4849
vn 0.6336 0.7278 0.2625
vn 0.7017 0.7124 -0.0075
vn 0.6765 0.7329 0.0724
vn 0.4849 0.7278 0.4849
vn 0.8524 -0.3856 0.3531
vn 0.3531 -0.3856 0.8524
vn 0.7638 -0.3513 0.5414
vn 0.2625 0.7278 0.6336
vn 0.0000 -0.3857 0.9226
vn 0.0000 0.7277 0.6859
vn -0.3531 -0.3856 0.8524
vn -0.2625 0.7278 0.6336
vn -0.6524 -0.3856 0.6524
vn -0.4849 0.7278 0.4849
vn -0.9401 -0.3407 -0.0060
vn -0.6393 0.7249 0.2565
vn 0.2565 0.7247 -0.6395
vn -0.0060 -0.3407 -0.9401
vn 0.3399 0.8769 -0.3399
vn 0.1839 0.8769 -0.4441
vn -0.0000 0.9962 -0.0872
vn 0.1025 0.9634 -0.2476
vn -0.0000 0.9634 -0.2680
vn -0.0000 0.8769 -0.4807
vn 0.1895 0.9634 -0.1895
vn 0.4441 0.8769 -0.1839
vn 0.0334 0.9962 -0.0806
vn 0.2476 0.9634 -0.1025
vn 0.0806 0.9962 -0.0334
vn 0.0617 0.9962 -0.0617
vn 0.2680 0.9634 -0.0000
vn 0.4807 0.8769 -0.0000
vn 0.4441 0.8769 0.1840
vn 0.0872 0.9962 0.0000
vn 0.2476 0.9634 0.1025
vn 0.3399 0.8769 0.3399
vn 0.1895 0.9634 0.1895
vn 0.0806 0.9962 0.0334
vn 0.1025 0.9634 0.2476
vn 0.1839 0.8769 0.4441
vn 0.0000 0.8769 0.4807
vn 0.0617 0.9962 0.0617
vn 0.0000 0.9634 0.2680
vn -0.1840 0.8769 0.4441
vn 0.0000 0.9962 0.0872
vn 0.0334 0.9962 0.0806
vn -0.1025 0.9634 0.2476
vn -0.3399 0.8769 0.3399
vn -0.0334 0.9962 0.0806
vn -0.1895 0.9634 0.1895
vn -0.4441 0.8769 0.1840
vn -0.0617 0.9962 0.0617
vn -0.2476 0.9634 0.1025
vn -0.4807 0.8769 0.0000
vn -0.0806 0.9962 0.0334
vn -0.2680 0.9634 -0.0000
vn -0.8302 0.4388 -0.3439
vn -0.8986 0.4388 0.0000
vn -0.2476 0.9634 -0.1025
vn -0.4441 0.8769 -0.1839
vn -0.3399 0.8769 -0.3399
vn -0.0872 0.9962 -0.0000
vn -0.1895 0.9634 -0.1895
vn -0.1839 0.8769 -0.4441
vn -0.6354 0.4388 -0.6354
vn -0.0617 0.9962 -0.0617
vn -0.0806 0.9962 -0.0334
vn -0.1025 0.9634 -0.2476
vn -0.3439 0.4388 -0.8302
vn -0.0334 0.9962 -0.0806
vn -0.1912 0.1974 -0.9615
vn 0.1767 0.4239 -0.8883
vn 0.1912 0.1974 -0.9615
vn -0.1228 0.7769 -0.6175
vn 0.0655 0.9420 -0.3292
vn 0.1228 0.7769 -0.6175
vn 0.0259 0.9911 -0.1304
vn 0.1864 0.9420 -0.2790
vn -0.0000 1.0000 0.0000
vn 0.0739 0.9911 -0.1106
vn 0.3498 0.7769 -0.5235
vn 0.5032 0.4239 -0.7531
vn 0.1106 0.9911 -0.0739
vn 0.2791 0.9420 -0.1865
vn 0.7530 0.4241 -0.5032
vn 0.5447 0.1973 -0.8151
vn 0.3292 0.9420 -0.0655
vn 0.1304 0.9911 -0.0259
vn 0.6175 0.7769 -0.1228
vn 0.5236 0.7769 -0.3498
vn 0.8883 0.4240 -0.1767
vn 0.8152 0.1973 -0.5446
vn 0.3292 0.9420 0.0655
vn 0.1304 0.9911 0.0259
vn 0.8883 0.4240 0.1767
vn 0.9615 0.1974 -0.1913
vn 0.1106 0.9911 0.0739
vn 0.6175 0.7769 0.1228
vn 0.7530 0.4240 0.5032
vn 0.9615 0.1974 0.1913
vn 0.2791 0.9420 0.1865
vn 0.1865 0.9420 0.2791
vn 0.0739 0.9911 0.1106
vn 0.5032 0.4239 0.7531
vn 0.8151 0.1975 0.5446
vn 0.3498 0.7769 0.5236
vn 0.5236 0.7769 0.3498
vn 0.0259 0.9911 0.1304
vn 0.1912 0.1974 0.9615
vn 0.5446 0.1973 0.8151
vn 0.0655 0.9420 0.3292
vn -0.0655 0.9420 0.3292
vn -0.0259 0.9911 0.1304
vn 0.1228 0.7769 0.6176
vn -0.1767 0.4239 0.8883
vn 0.1767 0.4239 0.8883
vn -0.1865 0.9420 0.2791
vn -0.0739 0.9911 0.1106
vn -0.5031 0.4240 0.7531
vn -0.1912 0.1974 0.9615
vn -0.1228 0.7769 0.6176
vn -0.1106 0.9911 0.0739
vn -0.1304 0.9911 0.0259
vn -0.2791 0.9420 0.1865
vn -0.3498 0.7769 0.5236
vn -0.3292 0.9420 0.0655
vn -0.7531 0.4239 0.5032
vn -0.5446 0.1974 0.8151
vn -0.5235 0.7769 0.3498
vn -0.1304 0.9911 -0.0259
vn -0.6175 0.7769 0.1228
vn -0.8883 0.4239 0.1767
vn -0.8151 0.1973 0.5446
vn -0.3292 0.9420 -0.0655
vn -0.6175 0.7769 -0.1229
vn -0.9615 0.1974 -0.1913
vn -0.9615 0.1974 0.1913
vn -0.1106 0.9911 -0.0739
vn -0.5235 0.7769 -0.3498
vn -0.8883 0.4239 -0.1767
vn -0.8151 0.1975 -0.5446
vn -0.1865 0.9420 -0.2790
vn -0.2791 0.9420 -0.1865
vn -0.0739 0.9911 -0.1106
vn -0.3498 0.7769 -0.5235
vn -0.7530 0.4240 -0.5032
vn -0.5446 0.1974 -0.8151
vn -0.0259 0.9911 -0.1304
vn -0.5032 0.4240 -0.7531
vn -0.1767 0.4239 -0.8883
vn -0.0655 0.9420 -0.3292
vn -0.0000 0.4388 -0.8986
vn -0.6898 -0.6650 -0.2861
vn -0.5280 -0.6652 -0.5279
vn -0.2861 -0.6648 -0.6901
vn -0.4642 -0.3394 0.8181
vn 0.8172 -0.3373 -0.4674
vn -0.0012 -0.6629 -0.7487
vn -0.7488 -0.6628 -0.0012
usemtl PandaMat.005
s 1
f 1/1/1 2/2/2 3/3/3
f 5/4/4 6/5/5 4/6/6
f 7/7/7 8/8/8 5/4/4
f 7/7/7 9/9/9 10/10/10
f 11/11/11 12/12/12 9/9/9
f 13/13/13 14/14/14 12/12/12
f 15/15/15 16/16/16 14/14/14
f 17/17/17 18/18/18 16/16/16
f 19/19/19 20/20/20 21/21/21
f 3/3/3 21/21/21 20/20/20
f 2/22/2 10/23/10 16/24/16
f 22/25/22 20/20/20 23/26/23
f 24/27/24 25/28/25 26/29/26
f 27/30/27 25/31/25 23/32/23
f 23/32/23 28/33/28 22/34/22
f 29/35/29 3/3/3 22/25/22
f 30/36/30 28/37/28 25/28/25
f 22/34/22 31/38/31 29/39/29
f 29/35/29 4/6/6 1/1/1
f 32/40/32 28/37/28 33/41/33
f 29/39/29 34/42/34 35/43/35
f 36/44/36 4/6/6 35/45/35
f 37/46/37 31/47/31 32/40/32
f 35/43/35 38/48/38 36/49/36
f 39/50/39 5/4/4 36/44/36
f 37/46/37 38/51/38 34/52/34
f 36/49/36 40/53/40 39/54/39
f 39/50/39 11/11/11 7/7/7
f 41/55/41 40/56/40 38/51/38
f 39/54/39 42/57/42 43/58/43
f 44/59/44 11/11/11 43/60/43
f 45/61/45 42/62/42 40/56/40
f 43/58/43 46/63/46 44/64/44
f 47/65/47 13/13/13 44/59/44
f 48/66/48 42/62/42 49/67/49
f 44/64/44 50/68/50 47/69/47
f 51/70/51 15/15/15 47/65/47
f 52/71/52 46/72/46 48/66/48
f 47/69/47 53/73/53 51/74/51
f 54/75/54 17/17/17 51/70/51
f 55/76/55 50/77/50 52/71/52
f 54/78/54 53/73/53 56/79/56
f 57/80/57 19/19/19 54/75/54
f 58/81/58 53/82/53 55/76/55
f 57/83/57 56/79/56 59/84/59
f 57/80/57 60/85/60 61/86/61
f 58/81/58 59/87/59 56/88/56
f 57/83/57 62/89/62 63/90/63
f 64/91/64 60/85/60 63/92/63
f 65/93/65 62/94/62 59/87/59
f 63/90/63 66/95/66 64/96/64
f 67/97/67 68/98/68 64/91/64
f 69/99/69 62/94/62 70/100/70
f 64/96/64 71/101/71 67/102/67
f 27/103/27 72/104/72 67/97/67
f 73/105/73 66/106/66 69/99/69
f 67/102/67 26/107/26 27/108/27
f 24/27/24 71/109/71 73/105/73
f 70/100/70 52/71/52 41/55/41
f 74/110/74 75/111/75 76/112/76
f 77/113/77 78/114/78 79/115/79
f 80/116/80 81/117/81 78/114/78
f 82/118/82 83/119/83 80/116/80
f 78/114/78 84/120/84 79/115/79
f 79/115/79 85/121/85 75/111/75
f 85/121/85 76/112/76 75/111/75
f 86/122/86 81/117/81 83/119/83
f 82/118/82 86/122/86 83/119/83
f 87/123/87 84/120/84 81/117/81
f 84/120/84 88/124/88 85/121/85
f 88/124/88 89/125/89 85/121/85
f 86/122/86 90/126/90 87/123/87
f 82/118/82 91/127/91 86/122/86
f 92/128/92 88/124/88 93/129/93
f 94/130/94 95/131/95 88/124/88
f 87/123/87 92/128/92 93/129/93
f 91/127/91 96/132/96 90/126/90
f 82/118/82 97/133/97 91/127/91
f 92/128/92 98/134/98 94/130/94
f 98/134/98 99/135/99 94/130/94
f 96/132/96 92/128/92 90/126/90
f 100/136/100 96/132/96 97/133/97
f 82/118/82 100/136/100 97/133/97
f 101/137/101 102/138/102 98/134/98
f 102/138/102 103/139/103 98/134/98
f 104/140/104 101/137/101 96/132/96
f 100/136/100 105/141/105 104/140/104
f 82/118/82 106/142/106 100/136/100
f 107/143/107 108/144/108 102/138/102
f 104/140/104 109/145/109 110/146/110
f 111/147/111 105/141/105 106/142/106
f 82/118/82 111/147/111 106/142/106
f 109/145/109 102/138/102 110/146/110
f 107/143/107 112/148/112 113/149/113
f 114/150/114 109/145/109 105/141/105
f 111/147/111 115/151/115 114/150/114
f 82/118/82 116/152/116 111/147/111
f 117/153/117 107/143/107 109/145/109
f 118/154/118 112/148/112 119/155/119
f 115/151/115 117/153/117 114/150/114
f 116/152/116 120/156/120 115/151/115
f 82/118/82 121/157/121 116/152/116
f 117/153/117 118/154/118 119/155/119
f 122/158/122 123/159/123 118/154/118
f 120/156/120 124/160/124 115/151/115
f 82/118/82 125/161/125 121/157/121
f 82/118/82 126/162/126 125/161/125
f 124/160/124 122/158/122 118/154/118
f 127/163/127 128/164/128 120/156/120
f 125/161/125 129/165/129 127/163/127
f 121/157/121 127/163/127 120/156/120
f 128/164/128 130/166/130 122/158/122
f 130/166/130 131/167/131 122/158/122
f 129/165/129 132/168/132 127/163/127
f 82/118/82 133/169/133 126/162/126
f 134/170/134 130/166/130 132/168/132
f 135/171/135 136/172/136 130/166/130
f 133/169/133 129/165/129 126/162/126
f 137/173/137 134/170/134 129/165/129
f 138/174/138 135/171/135 134/170/134
f 135/171/135 139/175/139 140/176/140
f 141/177/141 137/173/137 133/169/133
f 82/118/82 141/177/141 133/169/133
f 137/173/137 142/178/142 138/174/138
f 142/178/142 143/179/143 138/174/138
f 143/179/143 144/180/144 139/175/139
f 141/177/141 145/181/145 146/182/146
f 82/118/82 147/183/147 141/177/141
f 145/181/145 142/178/142 146/182/146
f 148/184/148 149/185/149 142/178/142
f 149/185/149 150/186/150 144/180/144
f 151/187/151 145/181/145 147/183/147
f 82/118/82 151/187/151 147/183/147
f 77/113/77 152/188/152 148/184/148
f 153/189/153 150/186/150 152/188/152
f 154/190/154 148/184/148 145/181/145
f 151/187/151 82/118/82 80/116/80
f 154/190/154 80/116/80 78/114/78
f 27/191/27 20/20/20 155/192/155
f 153/189/153 79/115/79 75/111/75
f 5/4/4 8/8/8 6/5/5
f 7/7/7 10/10/10 8/8/8
f 7/7/7 11/11/11 9/9/9
f 11/11/11 13/13/13 12/12/12
f 13/13/13 15/15/15 14/14/14
f 15/15/15 17/17/17 16/16/16
f 17/17/17 19/19/19 18/18/18
f 68/98/68 158/193/156 60/85/60
f 72/104/72 160/194/157 68/98/68
f 155/195/155 161/196/158 72/104/72
f 20/20/20 156/197/159 157/198/160
f 20/20/20 162/199/161 155/192/155
f 21/21/21 18/18/18 19/19/19
f 3/3/3 2/2/2 21/21/21
f 18/200/18 21/201/21 2/22/2
f 6/202/5 8/203/8 10/23/10
f 10/23/10 9/204/9 12/205/12
f 12/205/12 14/206/14 10/23/10
f 14/206/14 16/24/16 10/23/10
f 16/24/16 18/200/18 2/22/2
f 22/25/22 3/3/3 20/20/20
f 24/27/24 30/36/30 25/28/25
f 27/30/27 26/207/26 25/31/25
f 23/32/23 25/31/25 28/33/28
f 29/35/29 1/1/1 3/3/3
f 30/36/30 33/41/33 28/37/28
f 22/34/22 28/33/28 31/38/31
f 29/35/29 35/45/35 4/6/6
f 32/40/32 31/47/31 28/37/28
f 29/39/29 31/38/31 34/42/34
f 36/44/36 5/4/4 4/6/6
f 37/46/37 34/52/34 31/47/31
f 35/43/35 34/42/34 38/48/38
f 39/50/39 7/7/7 5/4/4
f 37/46/37 41/55/41 38/51/38
f 36/49/36 38/48/38 40/53/40
f 39/50/39 43/60/43 11/11/11
f 41/55/41 45/61/45 40/56/40
f 39/54/39 40/53/40 42/57/42
f 44/59/44 13/13/13 11/11/11
f 45/61/45 49/67/49 42/62/42
f 43/58/43 42/57/42 46/63/46
f 47/65/47 15/15/15 13/13/13
f 48/66/48 46/72/46 42/62/42
f 44/64/44 46/63/46 50/68/50
f 51/70/51 17/17/17 15/15/15
f 52/71/52 50/77/50 46/72/46
f 47/69/47 50/68/50 53/73/53
f 54/75/54 19/19/19 17/17/17
f 55/76/55 53/82/53 50/77/50
f 54/78/54 51/74/51 53/73/53
f 57/80/57 61/86/61 19/19/19
f 58/81/58 56/88/56 53/82/53
f 57/83/57 54/78/54 56/79/56
f 57/80/57 63/92/63 60/85/60
f 58/81/58 65/93/65 59/87/59
f 57/83/57 59/84/59 62/89/62
f 64/91/64 68/98/68 60/85/60
f 65/93/65 70/100/70 62/94/62
f 63/90/63 62/89/62 66/95/66
f 67/97/67 72/104/72 68/98/68
f 69/99/69 66/106/66 62/94/62
f 64/96/64 66/95/66 71/101/71
f 27/103/27 155/195/155 72/104/72
f 73/105/73 71/109/71 66/106/66
f 67/102/67 71/101/71 26/107/26
f 24/27/24 26/29/26 71/109/71
f 30/36/30 24/27/24 73/105/73
f 73/105/73 69/99/69 70/100/70
f 70/100/70 65/93/65 58/81/58
f 58/81/58 55/76/55 52/71/52
f 52/71/52 48/66/48 49/67/49
f 49/67/49 45/61/45 41/55/41
f 41/55/41 37/46/37 32/40/32
f 32/40/32 33/41/33 41/55/41
f 33/41/33 30/36/30 41/55/41
f 30/36/30 73/105/73 70/100/70
f 70/100/70 58/81/58 52/71/52
f 52/71/52 49/67/49 41/55/41
f 30/36/30 70/100/70 41/55/41
f 74/110/74 153/189/153 75/111/75
f 77/113/77 154/190/154 78/114/78
f 80/116/80 83/119/83 81/117/81
f 78/114/78 81/117/81 84/120/84
f 79/115/79 84/120/84 85/121/85
f 85/121/85 89/125/89 76/112/76
f 86/122/86 87/123/87 81/117/81
f 87/123/87 93/129/93 84/120/84
f 84/120/84 93/129/93 88/124/88
f 88/124/88 95/131/95 89/125/89
f 86/122/86 91/127/91 90/126/90
f 92/128/92 94/130/94 88/124/88
f 94/130/94 99/135/99 95/131/95
f 87/123/87 90/126/90 92/128/92
f 91/127/91 97/133/97 96/132/96
f 92/128/92 101/137/101 98/134/98
f 98/134/98 103/139/103 99/135/99
f 96/132/96 101/137/101 92/128/92
f 100/136/100 104/140/104 96/132/96
f 101/137/101 110/146/110 102/138/102
f 102/138/102 108/144/108 103/139/103
f 104/140/104 110/146/110 101/137/101
f 100/136/100 106/142/106 105/141/105
f 107/143/107 113/149/113 108/144/108
f 104/140/104 105/141/105 109/145/109
f 111/147/111 114/150/114 105/141/105
f 109/145/109 107/143/107 102/138/102
f 107/143/107 119/155/119 112/148/112
f 114/150/114 117/153/117 109/145/109
f 111/147/111 116/152/116 115/151/115
f 117/153/117 119/155/119 107/143/107
f 118/154/118 123/159/123 112/148/112
f 115/151/115 124/160/124 117/153/117
f 116/152/116 121/157/121 120/156/120
f 117/153/117 124/160/124 118/154/118
f 122/158/122 131/167/131 123/159/123
f 120/156/120 128/164/128 124/160/124
f 124/160/124 128/164/128 122/158/122
f 127/163/127 132/168/132 128/164/128
f 125/161/125 126/162/126 129/165/129
f 121/157/121 125/161/125 127/163/127
f 128/164/128 132/168/132 130/166/130
f 130/166/130 136/172/136 131/167/131
f 129/165/129 134/170/134 132/168/132
f 134/170/134 135/171/135 130/166/130
f 135/171/135 140/176/140 136/172/136
f 133/169/133 137/173/137 129/165/129
f 137/173/137 138/174/138 134/170/134
f 138/174/138 143/179/143 135/171/135
f 135/171/135 143/179/143 139/175/139
f 141/177/141 146/182/146 137/173/137
f 137/173/137 146/182/146 142/178/142
f 142/178/142 149/185/149 143/179/143
f 143/179/143 149/185/149 144/180/144
f 141/177/141 147/183/147 145/181/145
f 145/181/145 148/184/148 142/178/142
f 148/184/148 152/188/152 149/185/149
f 149/185/149 152/188/152 150/186/150
f 151/187/151 154/190/154 145/181/145
f 77/113/77 153/189/153 152/188/152
f 153/189/153 74/110/74 150/186/150
f 154/190/154 77/113/77 148/184/148
f 154/190/154 151/187/151 80/116/80
f 27/191/27 23/26/23 20/20/20
f 153/189/153 77/113/77 79/115/79
f 4/6/6 6/5/5 1/1/1
f 2/2/2 1/1/1 6/5/5
f 10/23/10 2/2/2 6/202/5
f 156/197/159 159/208/162 158/193/156
f 158/193/156 160/194/157 157/198/160
f 160/194/157 161/196/158 157/198/160
f 161/196/158 162/199/161 157/198/160
f 156/197/159 158/193/156 157/198/160
f 60/85/60 159/208/162 61/86/61
f 19/19/19 159/208/162 156/197/159
f 68/98/68 160/194/157 158/193/156
f 72/104/72 161/196/158 160/194/157
f 155/195/155 162/209/161 161/196/158
f 20/20/20 19/19/19 156/197/159
f 20/20/20 157/198/160 162/199/161
f 60/85/60 158/193/156 159/208/162
f 19/19/19 61/86/61 159/208/162
